<svg width="2232" height="995" viewBox="0 0 2232 995" fill="none" xmlns="http://www.w3.org/2000/svg">
<path d="M280.942 35.3964C86.9821 28.1296 12.8307 93.057 0 126.429V503H2216.54C2228.21 336.403 2244.54 2.57726 2216.54 0.0496687C2181.55 -3.10982 1930.1 145.583 1742.14 126.429C1554.18 107.275 1591.67 68.9162 1482.69 29.8176C1375.96 -8.47495 1243.97 6.74396 1152.76 44.6277C1084.78 72.8656 961.302 166.12 771.341 157.037C581.38 147.953 523.392 44.4799 280.942 35.3964Z" fill="#8C4CA0"/>
<path d="M1951.06 959.604C2145.02 966.87 2219.17 901.943 2232 868.571V492L15.457 492C3.79272 658.597 -12.5374 992.423 15.457 994.95C50.4497 998.11 301.898 849.417 489.859 868.571C677.82 887.725 640.328 926.084 749.306 965.182C856.037 1003.47 988.028 988.256 1079.24 950.372C1147.22 922.134 1270.7 828.88 1460.66 837.963C1650.62 847.047 1708.61 950.52 1951.06 959.604Z" fill="#8C4CA0"/>
<rect y="128.216" width="127" height="758.774" fill="#8C4CA0"/>
<rect x="2105" y="77.5869" width="127" height="758.774" fill="#8C4CA0"/>
</svg>
