<svg width="214" height="55" viewBox="0 0 214 55" fill="none" xmlns="http://www.w3.org/2000/svg">
<path d="M82.95 23.9C82.11 26.58 81.26 29.06 80.4 31.34C79.54 33.62 78.68 35.84 77.82 38H74.91C73.85 34.94 72.91 31.71 72.09 28.31C71.29 24.91 70.54 21.21 69.84 17.21H72.9C73.18 18.77 73.47 20.33 73.77 21.89C74.07 23.45 74.38 24.97 74.7 26.45C75.02 27.91 75.34 29.31 75.66 30.65C75.98 31.99 76.31 33.23 76.65 34.37C77.45 32.27 78.3 29.97 79.2 27.47C80.1 24.95 80.94 22.35 81.72 19.67H84.24C85.02 22.35 85.87 24.95 86.79 27.47C87.71 29.97 88.57 32.27 89.37 34.37C89.69 33.25 90.01 32.02 90.33 30.68C90.65 29.34 90.96 27.94 91.26 26.48C91.58 25 91.89 23.48 92.19 21.92C92.49 20.34 92.78 18.77 93.06 17.21H96.03C95.31 21.21 94.54 24.91 93.72 28.31C92.92 31.71 92 34.94 90.96 38H88.05C87.17 35.84 86.31 33.62 85.47 31.34C84.63 29.06 83.79 26.58 82.95 23.9ZM99.2613 38V15.2L102.051 14.72V22.7C102.571 22.5 103.121 22.35 103.701 22.25C104.301 22.13 104.891 22.07 105.471 22.07C106.711 22.07 107.741 22.25 108.561 22.61C109.381 22.95 110.031 23.44 110.511 24.08C111.011 24.7 111.361 25.45 111.561 26.33C111.761 27.21 111.861 28.18 111.861 29.24V38H109.071V29.84C109.071 28.88 109.001 28.06 108.861 27.38C108.741 26.7 108.531 26.15 108.231 25.73C107.931 25.31 107.531 25.01 107.031 24.83C106.531 24.63 105.911 24.53 105.171 24.53C104.871 24.53 104.561 24.55 104.241 24.59C103.921 24.63 103.611 24.68 103.311 24.74C103.031 24.78 102.771 24.83 102.531 24.89C102.311 24.95 102.151 25 102.051 25.04V38H99.2613ZM119.19 38H116.4V22.4H119.19V38ZM117.78 19.58C117.28 19.58 116.85 19.42 116.49 19.1C116.15 18.76 115.98 18.31 115.98 17.75C115.98 17.19 116.15 16.75 116.49 16.43C116.85 16.09 117.28 15.92 117.78 15.92C118.28 15.92 118.7 16.09 119.04 16.43C119.4 16.75 119.58 17.19 119.58 17.75C119.58 18.31 119.4 18.76 119.04 19.1C118.7 19.42 118.28 19.58 117.78 19.58ZM126.598 22.4H132.508V24.74H126.598V31.94C126.598 32.72 126.658 33.37 126.778 33.89C126.898 34.39 127.078 34.79 127.318 35.09C127.558 35.37 127.858 35.57 128.218 35.69C128.578 35.81 128.998 35.87 129.478 35.87C130.318 35.87 130.988 35.78 131.488 35.6C132.008 35.4 132.368 35.26 132.568 35.18L133.108 37.49C132.828 37.63 132.338 37.8 131.638 38C130.938 38.22 130.138 38.33 129.238 38.33C128.178 38.33 127.298 38.2 126.598 37.94C125.918 37.66 125.368 37.25 124.948 36.71C124.528 36.17 124.228 35.51 124.048 34.73C123.888 33.93 123.808 33.01 123.808 31.97V18.05L126.598 17.57V22.4ZM134.895 30.23C134.895 28.85 135.095 27.65 135.495 26.63C135.895 25.59 136.425 24.73 137.085 24.05C137.745 23.37 138.505 22.86 139.365 22.52C140.225 22.18 141.105 22.01 142.005 22.01C144.105 22.01 145.715 22.67 146.835 23.99C147.955 25.29 148.515 27.28 148.515 29.96C148.515 30.08 148.515 30.24 148.515 30.44C148.515 30.62 148.505 30.79 148.485 30.95H137.805C137.925 32.57 138.395 33.8 139.215 34.64C140.035 35.48 141.315 35.9 143.055 35.9C144.035 35.9 144.855 35.82 145.515 35.66C146.195 35.48 146.705 35.31 147.045 35.15L147.435 37.49C147.095 37.67 146.495 37.86 145.635 38.06C144.795 38.26 143.835 38.36 142.755 38.36C141.395 38.36 140.215 38.16 139.215 37.76C138.235 37.34 137.425 36.77 136.785 36.05C136.145 35.33 135.665 34.48 135.345 33.5C135.045 32.5 134.895 31.41 134.895 30.23ZM145.605 28.7C145.625 27.44 145.305 26.41 144.645 25.61C144.005 24.79 143.115 24.38 141.975 24.38C141.335 24.38 140.765 24.51 140.265 24.77C139.785 25.01 139.375 25.33 139.035 25.73C138.695 26.13 138.425 26.59 138.225 27.11C138.045 27.63 137.925 28.16 137.865 28.7H145.605ZM158.313 38.18C157.893 38.18 157.433 38.17 156.933 38.15C156.453 38.13 155.963 38.1 155.463 38.06C154.983 38.02 154.503 37.97 154.023 37.91C153.543 37.85 153.103 37.77 152.703 37.67V17.51C153.103 17.41 153.543 17.33 154.023 17.27C154.503 17.21 154.983 17.16 155.463 17.12C155.963 17.08 156.453 17.05 156.933 17.03C157.413 17.01 157.863 17 158.283 17C159.483 17 160.603 17.09 161.643 17.27C162.703 17.45 163.613 17.76 164.373 18.2C165.153 18.62 165.763 19.18 166.203 19.88C166.643 20.58 166.863 21.44 166.863 22.46C166.863 23.6 166.593 24.54 166.053 25.28C165.513 26 164.793 26.54 163.893 26.9C165.113 27.26 166.083 27.83 166.803 28.61C167.523 29.39 167.883 30.49 167.883 31.91C167.883 33.99 167.113 35.56 165.573 36.62C164.053 37.66 161.633 38.18 158.313 38.18ZM155.583 28.31V35.63C155.803 35.65 156.063 35.67 156.363 35.69C156.623 35.71 156.923 35.73 157.263 35.75C157.623 35.75 158.033 35.75 158.493 35.75C159.353 35.75 160.163 35.7 160.923 35.6C161.703 35.48 162.383 35.28 162.963 35C163.543 34.72 164.003 34.33 164.343 33.83C164.703 33.33 164.883 32.7 164.883 31.94C164.883 31.26 164.753 30.69 164.493 30.23C164.233 29.75 163.853 29.37 163.353 29.09C162.873 28.81 162.293 28.61 161.613 28.49C160.933 28.37 160.173 28.31 159.333 28.31H155.583ZM155.583 25.97H158.643C159.363 25.97 160.043 25.92 160.683 25.82C161.323 25.72 161.873 25.54 162.333 25.28C162.813 25.02 163.183 24.68 163.443 24.26C163.723 23.84 163.863 23.31 163.863 22.67C163.863 22.07 163.723 21.57 163.443 21.17C163.163 20.75 162.773 20.42 162.273 20.18C161.793 19.92 161.223 19.73 160.563 19.61C159.903 19.49 159.203 19.43 158.463 19.43C157.723 19.43 157.143 19.44 156.723 19.46C156.303 19.48 155.923 19.51 155.583 19.55V25.97ZM170.93 30.23C170.93 28.85 171.13 27.65 171.53 26.63C171.93 25.59 172.46 24.73 173.12 24.05C173.78 23.37 174.54 22.86 175.4 22.52C176.26 22.18 177.14 22.01 178.04 22.01C180.14 22.01 181.75 22.67 182.87 23.99C183.99 25.29 184.55 27.28 184.55 29.96C184.55 30.08 184.55 30.24 184.55 30.44C184.55 30.62 184.54 30.79 184.52 30.95H173.84C173.96 32.57 174.43 33.8 175.25 34.64C176.07 35.48 177.35 35.9 179.09 35.9C180.07 35.9 180.89 35.82 181.55 35.66C182.23 35.48 182.74 35.31 183.08 35.15L183.47 37.49C183.13 37.67 182.53 37.86 181.67 38.06C180.83 38.26 179.87 38.36 178.79 38.36C177.43 38.36 176.25 38.16 175.25 37.76C174.27 37.34 173.46 36.77 172.82 36.05C172.18 35.33 171.7 34.48 171.38 33.5C171.08 32.5 170.93 31.41 170.93 30.23ZM181.64 28.7C181.66 27.44 181.34 26.41 180.68 25.61C180.04 24.79 179.15 24.38 178.01 24.38C177.37 24.38 176.8 24.51 176.3 24.77C175.82 25.01 175.41 25.33 175.07 25.73C174.73 26.13 174.46 26.59 174.26 27.11C174.08 27.63 173.96 28.16 173.9 28.7H181.64ZM193.838 35.99C194.498 35.99 195.078 35.98 195.578 35.96C196.098 35.92 196.528 35.86 196.868 35.78V31.13C196.668 31.03 196.338 30.95 195.878 30.89C195.438 30.81 194.898 30.77 194.258 30.77C193.838 30.77 193.388 30.8 192.908 30.86C192.448 30.92 192.018 31.05 191.618 31.25C191.238 31.43 190.918 31.69 190.658 32.03C190.398 32.35 190.268 32.78 190.268 33.32C190.268 34.32 190.588 35.02 191.228 35.42C191.868 35.8 192.738 35.99 193.838 35.99ZM193.598 22.01C194.718 22.01 195.658 22.16 196.418 22.46C197.198 22.74 197.818 23.15 198.278 23.69C198.758 24.21 199.098 24.84 199.298 25.58C199.498 26.3 199.598 27.1 199.598 27.98V37.73C199.358 37.77 199.018 37.83 198.578 37.91C198.158 37.97 197.678 38.03 197.138 38.09C196.598 38.15 196.008 38.2 195.368 38.24C194.748 38.3 194.128 38.33 193.508 38.33C192.628 38.33 191.818 38.24 191.078 38.06C190.338 37.88 189.698 37.6 189.158 37.22C188.618 36.82 188.198 36.3 187.898 35.66C187.598 35.02 187.448 34.25 187.448 33.35C187.448 32.49 187.618 31.75 187.958 31.13C188.318 30.51 188.798 30.01 189.398 29.63C189.998 29.25 190.698 28.97 191.498 28.79C192.298 28.61 193.138 28.52 194.018 28.52C194.298 28.52 194.588 28.54 194.888 28.58C195.188 28.6 195.468 28.64 195.728 28.7C196.008 28.74 196.248 28.78 196.448 28.82C196.648 28.86 196.788 28.89 196.868 28.91V28.13C196.868 27.67 196.818 27.22 196.718 26.78C196.618 26.32 196.438 25.92 196.178 25.58C195.918 25.22 195.558 24.94 195.098 24.74C194.658 24.52 194.078 24.41 193.358 24.41C192.438 24.41 191.628 24.48 190.928 24.62C190.248 24.74 189.738 24.87 189.398 25.01L189.068 22.7C189.428 22.54 190.028 22.39 190.868 22.25C191.708 22.09 192.618 22.01 193.598 22.01ZM206.842 22.4H212.752V24.74H206.842V31.94C206.842 32.72 206.902 33.37 207.022 33.89C207.142 34.39 207.322 34.79 207.562 35.09C207.802 35.37 208.102 35.57 208.462 35.69C208.822 35.81 209.242 35.87 209.722 35.87C210.562 35.87 211.232 35.78 211.732 35.6C212.252 35.4 212.612 35.26 212.812 35.18L213.352 37.49C213.072 37.63 212.582 37.8 211.882 38C211.182 38.22 210.382 38.33 209.482 38.33C208.422 38.33 207.542 38.2 206.842 37.94C206.162 37.66 205.612 37.25 205.192 36.71C204.772 36.17 204.472 35.51 204.292 34.73C204.132 33.93 204.052 33.01 204.052 31.97V18.05L206.842 17.57V22.4Z" fill="#101010"/>
<rect x="1" y="1" width="53" height="53" rx="4" fill="#F1F1F1" stroke="#101010" stroke-width="2"/>
<path d="M21.6667 13.2667V31.6808C20.6198 31.0736 19.4059 30.7241 18.1111 30.7241C14.19 30.7241 11 33.9141 11 37.8352C11 41.7563 14.19 44.9463 18.1111 44.9463C22.0322 44.9463 25.2222 41.7563 25.2222 37.8352V16.1815L39.4444 13.3371V28.1252C38.3977 27.518 37.1837 27.1685 35.8889 27.1685C31.9678 27.1685 28.7778 30.3586 28.7778 34.2796C28.7778 38.2007 31.9678 41.3908 35.8889 41.3908C39.81 41.3908 43 38.2007 43 34.2796V9L21.6667 13.2667ZM18.1111 41.3908C16.1506 41.3908 14.5556 39.7957 14.5556 37.8352C14.5556 35.8747 16.1506 34.2796 18.1111 34.2796C20.0716 34.2796 21.6667 35.8747 21.6667 37.8352C21.6667 39.7957 20.0716 41.3908 18.1111 41.3908ZM35.8889 37.8352C33.9284 37.8352 32.3333 36.2402 32.3333 34.2796C32.3333 32.3191 33.9284 30.7241 35.8889 30.7241C37.8494 30.7241 39.4444 32.3191 39.4444 34.2796C39.4444 36.2402 37.8494 37.8352 35.8889 37.8352Z" fill="#101010"/>
</svg>
