<svg width="30" height="30" viewBox="0 0 30 30" fill="none" xmlns="http://www.w3.org/2000/svg">
<path d="M30 27.8679C30 29.0464 29.331 30 28.5075 30H16.4925C16.0967 30 15.717 29.7754 15.4371 29.3755C15.1572 28.9757 15 28.4333 15 27.8679C15 27.3024 15.1572 26.7601 15.4371 26.3602C15.717 25.9604 16.0967 25.7357 16.4925 25.7357H28.5075C29.3325 25.7357 30 26.6893 30 27.8679Z" fill="#101010"/>
<path d="M30 15C30 16.1786 29.331 17.1321 28.5075 17.1321H1.4925C1.09666 17.1321 0.717041 16.9075 0.437143 16.5077C0.157245 16.1078 0 15.5655 0 15C0 14.4345 0.157245 13.8922 0.437143 13.4923C0.717041 13.0925 1.09666 12.8679 1.4925 12.8679H28.5075C29.3325 12.8679 30 13.8236 30 15Z" fill="#101010"/>
<path d="M27.8679 4C28.4333 4 28.9757 3.78929 29.3755 3.41421C29.7754 3.03914 30 2.53043 30 2C30 1.46957 29.7754 0.960859 29.3755 0.585786C28.9757 0.210713 28.4333 1.58081e-08 27.8679 0H2.13214C1.85215 -7.8274e-09 1.57489 0.0517315 1.31621 0.152241C1.05752 0.25275 0.822478 0.400069 0.62449 0.585786C0.426502 0.771503 0.26945 0.991982 0.1623 1.23463C0.0551495 1.47728 0 1.73736 0 2C0 2.26264 0.0551495 2.52272 0.1623 2.76537C0.26945 3.00802 0.426502 3.2285 0.62449 3.41421C0.822478 3.59993 1.05752 3.74725 1.31621 3.84776C1.57489 3.94827 1.85215 4 2.13214 4H27.8679Z" fill="#101010"/>
</svg>
