<svg width="55" height="55" viewBox="0 0 55 55" fill="none" xmlns="http://www.w3.org/2000/svg">
<rect x="1" y="1" width="53" height="53" rx="4" fill="#F1F1F1" stroke="#101010" stroke-width="2"/>
<path d="M21.6667 13.2667V31.6808C20.6198 31.0736 19.4059 30.7241 18.1111 30.7241C14.19 30.7241 11 33.9141 11 37.8352C11 41.7563 14.19 44.9463 18.1111 44.9463C22.0322 44.9463 25.2222 41.7563 25.2222 37.8352V16.1815L39.4444 13.3371V28.1252C38.3977 27.518 37.1837 27.1685 35.8889 27.1685C31.9678 27.1685 28.7778 30.3586 28.7778 34.2796C28.7778 38.2007 31.9678 41.3908 35.8889 41.3908C39.81 41.3908 43 38.2007 43 34.2796V9L21.6667 13.2667ZM18.1111 41.3908C16.1506 41.3908 14.5556 39.7957 14.5556 37.8352C14.5556 35.8747 16.1506 34.2796 18.1111 34.2796C20.0716 34.2796 21.6667 35.8747 21.6667 37.8352C21.6667 39.7957 20.0716 41.3908 18.1111 41.3908ZM35.8889 37.8352C33.9284 37.8352 32.3333 36.2402 32.3333 34.2796C32.3333 32.3191 33.9284 30.7241 35.8889 30.7241C37.8494 30.7241 39.4444 32.3191 39.4444 34.2796C39.4444 36.2402 37.8494 37.8352 35.8889 37.8352Z" fill="#101010"/>
</svg>
